# xmcd CD database file
#
# Track frame offsets:
#	150
#	7523
#	27925
#	51008
#	74663
#	92080
#	115233
#	137790
#	157260
#	173183
#	191625
#
# Disc length: 2899 seconds
#
# Revision: 0
# Processed by: cddbd v1.5.1PL0 Copyright (c) Steve Scherf et al.
# Submitted via: CDex 1.50
#
DISCID=920b510b
DTITLE=Eyes of Shiva - Eyes of Soul
DYEAR=2004
DGENRE=Heavy Metal
TTITLE0=ESSENCE
TTITLE1=EAGLE OF SUN
TTITLE2=LAMPIAO
TTITLE3=PSYCHOS OF THE NEW MILLENNIUM
TTITLE4=PRIDE
TTITLE5=EYES OF SOUL
TTITLE6=WORLD TOMORROW
TTITLE7=FUTURE
TTITLE8=ALONE
TTITLE9=JUST A MIRACLE
TTITLE10=WAY TO SALVATION
EXTD=YEAR: 2004
EXTT0=
EXTT1=
EXTT2=
EXTT3=
EXTT4=
EXTT5=
EXTT6=
EXTT7=
EXTT8=
EXTT9=
EXTT10=
PLAYORDER=
